<svg width="1024" height="1024" viewBox="0 0 1024 1024" fill="none" xmlns="http://www.w3.org/2000/svg">
<g clip-path="url(#clip0_1_62749)">
<rect width="1024" height="1024" rx="512" fill="#0E1B4F"/>
<g style="mix-blend-mode:soft-light">
<path d="M223.075 367.333C226.259 364.149 231.421 364.149 234.605 367.333L373.915 506.643C377.099 509.827 377.099 514.99 373.915 518.174L234.605 657.484C231.421 660.668 226.259 660.668 223.075 657.484L83.765 518.174C80.5811 514.99 80.5811 509.827 83.765 506.643L223.075 367.333Z" fill="#6D6D6D"/>
<path d="M505.826 367.333C509.01 364.149 514.172 364.149 517.356 367.333L656.666 506.643C659.85 509.827 659.85 514.99 656.666 518.174L517.356 657.484C514.172 660.668 509.01 660.668 505.826 657.484L366.516 518.174C363.332 514.99 363.332 509.827 366.516 506.643L505.826 367.333Z" fill="#6D6D6D"/>
<path d="M787.395 367.333C790.579 364.149 795.741 364.149 798.925 367.333L938.235 506.643C941.419 509.827 941.419 514.99 938.235 518.174L798.925 657.484C795.741 660.668 790.579 660.668 787.395 657.484L648.085 518.174C644.901 514.99 644.901 509.827 648.085 506.643L787.395 367.333Z" fill="#6D6D6D"/>
<path d="M505.826 85.765C509.01 82.5811 514.172 82.5811 517.356 85.765L656.666 225.075C659.85 228.259 659.85 233.421 656.666 236.605L517.356 375.915C514.172 379.099 509.01 379.099 505.826 375.915L366.516 236.605C363.332 233.421 363.332 228.259 366.516 225.075L505.826 85.765Z" fill="#6D6D6D"/>
<path d="M505.826 650.085C509.01 646.901 514.172 646.901 517.356 650.085L656.666 789.395C659.85 792.579 659.85 797.741 656.666 800.925L517.356 940.235C514.172 943.419 509.01 943.419 505.826 940.235L366.516 800.925C363.332 797.741 363.332 792.579 366.516 789.395L505.826 650.085Z" fill="#6D6D6D"/>
</g>
<g filter="url(#filter0_i_1_62749)">
<path fill-rule="evenodd" clip-rule="evenodd" d="M528.896 651.401C528.91 651.703 528.918 652.01 528.918 652.313V686.062C525.178 689.088 523.662 692.95 523.662 697.282C523.662 701.615 525.178 705.661 528.918 708.262V787.735C528.918 797.426 521.472 805.359 512.376 805.359H512.375C503.28 805.359 495.833 797.428 495.833 787.735V708.363C499.64 705.504 501.473 701.433 501.473 696.993C501.473 692.553 499.697 688.542 495.833 685.743V652.313C495.833 652.007 495.841 651.703 495.855 651.401H528.896Z" fill="#D32A8F"/>
<path fill-rule="evenodd" clip-rule="evenodd" d="M364.533 661.63H364.534C373.632 661.63 381.075 669.082 381.075 678.191V701.779C381.075 710.888 373.632 718.34 364.534 718.34H364.533C355.434 718.34 347.99 710.888 347.99 701.779V678.191C347.99 669.082 355.434 661.63 364.533 661.63Z" fill="#8881B4"/>
<path fill-rule="evenodd" clip-rule="evenodd" d="M438.167 656.857H438.744C447.684 656.857 454.998 664.179 454.998 673.129C454.998 682.08 447.684 689.402 438.744 689.402H438.167C429.227 689.402 421.913 682.08 421.913 673.129C421.913 664.179 429.227 656.857 438.167 656.857Z" fill="#B453A2"/>
<path fill-rule="evenodd" clip-rule="evenodd" d="M586.3 651.83H586.301C595.399 651.83 602.843 659.282 602.843 668.391V690.543C602.843 699.651 595.399 707.104 586.301 707.104H586.3C577.202 707.104 569.758 699.651 569.758 690.543V668.391C569.758 659.282 577.202 651.83 586.3 651.83Z" fill="#F43E7B"/>
<path fill-rule="evenodd" clip-rule="evenodd" d="M289.447 649.796H291.773C300.232 649.796 307.152 656.724 307.152 665.193V665.194C307.152 673.662 300.232 680.591 291.773 680.591H289.447C280.988 680.591 274.067 673.662 274.067 665.194V665.193C274.067 656.724 280.988 649.796 289.447 649.796Z" fill="#306FA2"/>
<path fill-rule="evenodd" clip-rule="evenodd" d="M660.219 664.511H660.22C669.318 664.511 676.762 671.962 676.762 681.071V697.344C676.762 706.452 669.318 713.904 660.22 713.904H660.219C651.121 713.904 643.678 706.452 643.678 697.344V681.071C643.678 671.962 651.121 664.511 660.219 664.511Z" fill="#FF6690"/>
<path fill-rule="evenodd" clip-rule="evenodd" d="M732.88 648.492H735.407C743.811 648.492 750.686 655.375 750.686 663.789V663.79C750.686 672.203 743.811 679.086 735.407 679.086H732.88C724.476 679.086 717.601 672.203 717.601 663.79V663.789C717.601 655.375 724.476 648.492 732.88 648.492Z" fill="#FF8D36"/>
<path fill-rule="evenodd" clip-rule="evenodd" d="M438.456 711.127H438.456C447.554 711.127 454.998 718.579 454.998 727.688V749.537C454.998 758.646 447.554 766.098 438.456 766.098H438.456C429.357 766.098 421.913 758.646 421.913 749.537V727.688C421.913 718.579 429.357 711.127 438.456 711.127Z" fill="#B453A2"/>
<path fill-rule="evenodd" clip-rule="evenodd" d="M585.868 729.057H586.732C595.593 729.057 602.843 736.315 602.843 745.186V745.186C602.843 754.057 595.593 761.315 586.732 761.315H585.868C577.007 761.315 569.758 754.057 569.758 745.186V745.186C569.758 736.315 577.007 729.057 585.868 729.057Z" fill="#F43E7B"/>
</g>
<g filter="url(#filter1_i_1_62749)">
<path fill-rule="evenodd" clip-rule="evenodd" d="M512.826 333.405H512.827C521.926 333.405 529.369 340.857 529.369 349.966V402.829C529.369 411.938 521.926 419.39 512.827 419.39H512.826C503.728 419.39 496.284 411.938 496.284 402.829V349.966C496.284 340.857 503.728 333.405 512.826 333.405Z" fill="#D32A8F"/>
<path fill-rule="evenodd" clip-rule="evenodd" d="M364.984 384.347H364.985C374.083 384.347 381.526 391.799 381.526 400.908V413.233C381.526 422.342 374.083 429.794 364.985 429.794H364.984C355.885 429.794 348.441 422.342 348.441 413.233V400.908C348.441 391.799 355.885 384.347 364.984 384.347Z" fill="#8881B4"/>
<path fill-rule="evenodd" clip-rule="evenodd" d="M438.907 313.964H438.908C448.006 313.964 455.449 321.417 455.449 330.525V416.105C455.449 425.214 448.006 432.666 438.908 432.666H438.907C429.808 432.666 422.364 425.214 422.364 416.105V330.525C422.364 321.417 429.808 313.964 438.907 313.964Z" fill="#B453A2"/>
<path fill-rule="evenodd" clip-rule="evenodd" d="M586.751 289.839H586.752C595.85 289.839 603.294 297.292 603.294 306.4V425.674C603.294 434.782 595.85 442.235 586.752 442.235H586.751C577.653 442.235 570.209 434.782 570.209 425.674V306.4C570.209 297.292 577.653 289.839 586.751 289.839Z" fill="#F43E7B"/>
<path fill-rule="evenodd" clip-rule="evenodd" d="M291.061 313.993H291.062C300.16 313.993 307.604 321.445 307.604 330.554V367.051C307.604 376.16 300.16 383.612 291.062 383.612H291.061C281.962 383.612 274.519 376.16 274.519 367.051V330.554C274.519 321.445 281.962 313.993 291.061 313.993Z" fill="#306FA2"/>
<path fill-rule="evenodd" clip-rule="evenodd" d="M660.671 390.142H660.672C669.769 390.142 677.213 397.593 677.213 406.702V410.294C677.213 419.403 669.769 426.854 660.672 426.854H660.671C651.573 426.854 644.129 419.403 644.129 410.294V406.702C644.129 397.593 651.573 390.142 660.671 390.142Z" fill="#FF6690"/>
<path fill-rule="evenodd" clip-rule="evenodd" d="M734.597 380.812H734.597C743.696 380.812 751.139 388.264 751.139 397.373V410.121C751.139 419.23 743.696 426.682 734.597 426.682H734.597C725.498 426.682 718.054 419.23 718.054 410.121V397.373C718.054 388.264 725.498 380.812 734.597 380.812Z" fill="#FF8D36"/>
<path fill-rule="evenodd" clip-rule="evenodd" d="M364.984 271.406H364.985C374.083 271.406 381.526 278.858 381.526 287.967V351.873C381.526 360.982 374.083 368.434 364.985 368.434H364.984C355.885 368.434 348.441 360.982 348.441 351.873V287.967C348.441 278.858 355.885 271.406 364.984 271.406Z" fill="#8881B4"/>
<path fill-rule="evenodd" clip-rule="evenodd" d="M657.791 342.311H663.551C671.065 342.311 677.213 349.261 677.213 357.755V357.755C677.213 366.249 671.065 373.199 663.551 373.199H657.791C650.277 373.199 644.129 366.249 644.129 357.755V357.755C644.129 349.261 650.277 342.311 657.791 342.311Z" fill="#FF6690"/>
<path fill-rule="evenodd" clip-rule="evenodd" d="M660.671 267H660.672C669.769 267 677.213 274.452 677.213 283.56V308.299C677.213 317.407 669.769 324.858 660.672 324.858H660.671C651.573 324.858 644.129 317.407 644.129 308.299V283.56C644.129 274.452 651.573 267 660.671 267Z" fill="#FF6690"/>
<path fill-rule="evenodd" clip-rule="evenodd" d="M734.597 288.691H734.597C743.696 288.691 751.139 296.143 751.139 305.252V337.623C751.139 346.732 743.696 354.184 734.597 354.184H734.597C725.498 354.184 718.054 346.732 718.054 337.623V305.252C718.054 296.143 725.498 288.691 734.597 288.691Z" fill="#FF8D36"/>
</g>
<g filter="url(#filter2_i_1_62749)">
<path d="M226.499 592.158V597.952H236.236C237.092 597.952 237.779 598.191 238.296 598.669C238.834 599.146 239.103 599.764 239.103 600.52C239.103 601.277 238.834 601.894 238.296 602.372C237.759 602.85 237.072 603.089 236.236 603.089H226.499V619.246C226.499 619.943 226.728 620.53 227.186 621.008C227.664 621.466 228.251 621.695 228.948 621.695H234.025C234.563 621.695 235.041 621.546 235.459 621.247C235.877 620.929 236.196 620.481 236.415 619.903C236.435 619.844 236.484 619.704 236.564 619.485C237.022 618.071 237.848 617.365 239.043 617.365C239.74 617.365 240.327 617.614 240.805 618.111C241.303 618.589 241.552 619.147 241.552 619.784C241.552 621.556 240.795 623.169 239.282 624.622C237.769 626.095 235.997 626.832 233.966 626.832H228.948C226.838 626.832 225.036 626.076 223.543 624.562C222.049 623.069 221.303 621.277 221.303 619.186V603.089H219.152C218.276 603.089 217.579 602.86 217.062 602.402C216.544 601.924 216.285 601.297 216.285 600.52C216.285 599.784 216.554 599.176 217.092 598.699C217.629 598.201 218.316 597.952 219.152 597.952H221.303V592.158C221.303 591.282 221.532 590.595 221.99 590.097C222.467 589.599 223.095 589.35 223.871 589.35C224.628 589.35 225.255 589.609 225.753 590.127C226.25 590.645 226.499 591.322 226.499 592.158Z" fill="#9F34E1"/>
<path d="M263.951 603.029C263.692 603.029 263.423 603.089 263.145 603.208C262.886 603.308 262.617 603.457 262.338 603.656L260.158 605.478C259.879 605.697 259.65 605.986 259.471 606.344C259.312 606.683 259.232 607.031 259.232 607.389V610.854H274.285V607.389C274.285 607.031 274.195 606.683 274.016 606.344C273.857 605.986 273.647 605.707 273.389 605.508L271.149 603.656C270.89 603.457 270.621 603.308 270.342 603.208C270.084 603.089 269.825 603.029 269.566 603.029H263.951ZM263.891 597.952H269.566C270.422 597.952 271.268 598.111 272.104 598.43C272.961 598.728 273.747 599.166 274.464 599.744L276.674 601.506C277.51 602.203 278.177 603.079 278.675 604.134C279.173 605.189 279.422 606.274 279.422 607.389V613.512C279.422 614.249 279.153 614.866 278.615 615.364C278.078 615.842 277.391 616.08 276.554 616.08H259.232V617.424C259.232 617.783 259.312 618.131 259.471 618.47C259.65 618.808 259.879 619.087 260.158 619.306L262.338 621.158C262.577 621.337 262.816 621.476 263.055 621.576C263.314 621.655 263.613 621.695 263.951 621.695H276.554C277.411 621.695 278.098 621.934 278.615 622.412C279.153 622.89 279.422 623.507 279.422 624.264C279.422 625.02 279.153 625.638 278.615 626.115C278.078 626.593 277.391 626.832 276.554 626.832H263.891C263.035 626.832 262.199 626.683 261.383 626.384C260.566 626.086 259.79 625.647 259.053 625.07L256.843 623.218C255.987 622.522 255.31 621.655 254.812 620.62C254.334 619.585 254.095 618.519 254.095 617.424V607.389C254.095 606.274 254.334 605.189 254.812 604.134C255.31 603.079 255.987 602.203 256.843 601.506L259.053 599.744C259.79 599.146 260.566 598.699 261.383 598.4C262.199 598.101 263.035 597.952 263.891 597.952Z" fill="#9F34E1"/>
<path d="M304.121 597.952H314.365C315.201 597.952 315.888 598.201 316.425 598.699C316.963 599.176 317.232 599.784 317.232 600.52C317.232 601.297 316.973 601.914 316.455 602.372C315.957 602.81 315.261 603.029 314.365 603.029H304.121C303.822 603.029 303.533 603.099 303.255 603.238C302.976 603.358 302.677 603.557 302.359 603.835L297.789 607.808C297.57 607.987 297.391 608.236 297.251 608.554C297.112 608.873 297.042 609.191 297.042 609.51V615.214C297.042 615.553 297.112 615.891 297.251 616.23C297.391 616.548 297.56 616.797 297.759 616.976L302.388 620.978C302.747 621.257 303.055 621.446 303.314 621.546C303.573 621.645 303.842 621.695 304.121 621.695H314.365C315.221 621.695 315.908 621.934 316.425 622.412C316.963 622.89 317.232 623.507 317.232 624.264C317.232 625.02 316.963 625.638 316.425 626.115C315.888 626.593 315.201 626.832 314.365 626.832H304.121C303.264 626.832 302.378 626.663 301.463 626.324C300.567 626.006 299.81 625.588 299.193 625.07L294.593 621.008C293.717 620.232 293.05 619.346 292.592 618.35C292.134 617.355 291.905 616.309 291.905 615.214V609.57C291.905 608.495 292.134 607.459 292.592 606.464C293.05 605.448 293.717 604.552 294.593 603.776L299.193 599.744C299.81 599.206 300.567 598.778 301.463 598.46C302.378 598.121 303.264 597.952 304.121 597.952Z" fill="#9F34E1"/>
<path d="M334.853 590.067V602.193L338.586 599.744C338.665 599.684 338.765 599.614 338.884 599.535C340.437 598.479 341.971 597.952 343.484 597.952H346.709C348.8 597.952 350.572 598.669 352.025 600.102C353.499 601.536 354.275 603.348 354.355 605.538L354.982 623.905V624.025C354.982 624.821 354.743 625.488 354.265 626.026C353.788 626.563 353.21 626.832 352.533 626.832C351.757 626.832 351.12 626.583 350.622 626.086C350.144 625.588 349.885 624.921 349.845 624.084L349.218 605.538C349.178 604.821 348.919 604.234 348.442 603.776C347.984 603.318 347.406 603.089 346.709 603.089H343.424C343.125 603.089 342.847 603.139 342.588 603.238C342.349 603.338 342.01 603.537 341.572 603.835L334.853 608.375V623.965C334.853 624.821 334.614 625.508 334.136 626.026C333.658 626.563 333.041 626.832 332.284 626.832C331.528 626.832 330.91 626.563 330.432 626.026C329.955 625.488 329.716 624.801 329.716 623.965V590.067C329.716 589.191 329.945 588.494 330.403 587.977C330.88 587.459 331.508 587.2 332.284 587.2C333.021 587.2 333.628 587.469 334.106 588.007C334.604 588.544 334.853 589.231 334.853 590.067Z" fill="#9F34E1"/>
<path d="M372.663 600.849V602.432L375.649 600.401L375.829 600.281C378.019 598.728 380.079 597.952 382.011 597.952H384.34C386.949 597.952 388.9 598.738 390.194 600.311C391.488 601.884 392.185 604.293 392.285 607.539L392.852 623.965V624.084C392.852 624.881 392.603 625.538 392.105 626.056C391.628 626.573 391.02 626.832 390.284 626.832C389.527 626.832 388.92 626.573 388.462 626.056C388.004 625.558 387.755 624.861 387.715 623.965L387.088 607.36C387.028 605.926 386.73 604.871 386.192 604.194C385.674 603.497 384.898 603.149 383.862 603.149H382.19C381.274 603.149 380.139 603.587 378.785 604.463L378.606 604.582L372.663 608.495V623.965C372.663 624.821 372.424 625.508 371.946 626.026C371.468 626.563 370.851 626.832 370.094 626.832C369.338 626.832 368.72 626.563 368.243 626.026C367.765 625.488 367.526 624.801 367.526 623.965V600.849C367.526 599.973 367.755 599.276 368.213 598.758C368.691 598.221 369.318 597.952 370.094 597.952C370.831 597.952 371.438 598.221 371.916 598.758C372.414 599.296 372.663 599.993 372.663 600.849Z" fill="#9F34E1"/>
<path d="M415.192 603.029C414.933 603.029 414.664 603.089 414.385 603.208C414.126 603.308 413.858 603.457 413.579 603.656L411.399 605.478C411.12 605.697 410.891 605.986 410.712 606.344C410.553 606.683 410.473 607.031 410.473 607.389V617.424C410.473 617.783 410.553 618.131 410.712 618.47C410.891 618.808 411.12 619.087 411.399 619.306L413.609 621.158C413.848 621.337 414.097 621.476 414.355 621.576C414.634 621.655 414.913 621.695 415.192 621.695H420.807C421.085 621.695 421.364 621.645 421.643 621.546C421.921 621.446 422.18 621.307 422.419 621.128L424.599 619.306C424.858 619.107 425.077 618.828 425.257 618.47C425.436 618.111 425.525 617.763 425.525 617.424V607.389C425.525 607.031 425.436 606.683 425.257 606.344C425.097 605.986 424.888 605.707 424.629 605.508L422.389 603.656C422.131 603.457 421.862 603.308 421.583 603.208C421.324 603.089 421.065 603.029 420.807 603.029H415.192ZM415.132 597.952H420.807C421.663 597.952 422.509 598.111 423.345 598.43C424.201 598.728 424.988 599.166 425.704 599.744L427.915 601.506C428.751 602.203 429.418 603.079 429.916 604.134C430.413 605.189 430.662 606.274 430.662 607.389V617.424C430.662 618.519 430.413 619.585 429.916 620.62C429.438 621.655 428.771 622.522 427.915 623.218L425.704 625.07C424.988 625.628 424.201 626.056 423.345 626.354C422.509 626.673 421.663 626.832 420.807 626.832H415.132C414.276 626.832 413.44 626.683 412.623 626.384C411.807 626.086 411.03 625.647 410.294 625.07L408.084 623.218C407.227 622.522 406.551 621.655 406.053 620.62C405.575 619.585 405.336 618.519 405.336 617.424V607.389C405.336 606.274 405.575 605.189 406.053 604.134C406.551 603.079 407.227 602.203 408.084 601.506L410.294 599.744C411.03 599.146 411.807 598.699 412.623 598.4C413.44 598.101 414.276 597.952 415.132 597.952Z" fill="#9F34E1"/>
<path d="M448.522 587.2H455.511C456.367 587.2 457.054 587.439 457.571 587.917C458.109 588.395 458.378 589.012 458.378 589.769V621.695H463.097C463.933 621.695 464.61 621.934 465.127 622.412C465.645 622.87 465.904 623.487 465.904 624.264C465.904 625.02 465.635 625.638 465.098 626.115C464.58 626.593 463.913 626.832 463.097 626.832H448.522C447.666 626.832 446.969 626.593 446.431 626.115C445.914 625.638 445.655 625.02 445.655 624.264C445.655 623.507 445.924 622.89 446.461 622.412C446.999 621.934 447.686 621.695 448.522 621.695H453.181V592.337H448.522C447.646 592.337 446.949 592.108 446.431 591.65C445.914 591.172 445.655 590.545 445.655 589.769C445.655 589.012 445.924 588.395 446.461 587.917C446.999 587.439 447.686 587.2 448.522 587.2Z" fill="#9F34E1"/>
<path d="M490.812 603.029C490.553 603.029 490.284 603.089 490.006 603.208C489.747 603.308 489.478 603.457 489.199 603.656L487.019 605.478C486.74 605.697 486.511 605.986 486.332 606.344C486.173 606.683 486.093 607.031 486.093 607.389V617.424C486.093 617.783 486.173 618.131 486.332 618.47C486.511 618.808 486.74 619.087 487.019 619.306L489.229 621.158C489.468 621.337 489.717 621.476 489.976 621.576C490.255 621.655 490.533 621.695 490.812 621.695H496.427C496.706 621.695 496.984 621.645 497.263 621.546C497.542 621.446 497.801 621.307 498.04 621.128L500.22 619.306C500.479 619.107 500.698 618.828 500.877 618.47C501.056 618.111 501.146 617.763 501.146 617.424V607.389C501.146 607.031 501.056 606.683 500.877 606.344C500.718 605.986 500.508 605.707 500.25 605.508L498.01 603.656C497.751 603.457 497.482 603.308 497.203 603.208C496.944 603.089 496.686 603.029 496.427 603.029H490.812ZM490.752 597.952H496.427C497.283 597.952 498.129 598.111 498.965 598.43C499.822 598.728 500.608 599.166 501.325 599.744L503.535 601.506C504.371 602.203 505.038 603.079 505.536 604.134C506.034 605.189 506.283 606.274 506.283 607.389V617.424C506.283 618.519 506.034 619.585 505.536 620.62C505.058 621.655 504.391 622.522 503.535 623.218L501.325 625.07C500.608 625.628 499.822 626.056 498.965 626.354C498.129 626.673 497.283 626.832 496.427 626.832H490.752C489.896 626.832 489.06 626.683 488.244 626.384C487.427 626.086 486.651 625.647 485.914 625.07L483.704 623.218C482.848 622.522 482.171 621.655 481.673 620.62C481.195 619.585 480.956 618.519 480.956 617.424V607.389C480.956 606.274 481.195 605.189 481.673 604.134C482.171 603.079 482.848 602.203 483.704 601.506L485.914 599.744C486.651 599.146 487.427 598.699 488.244 598.4C489.06 598.101 489.896 597.952 490.752 597.952Z" fill="#9F34E1"/>
<path d="M538.896 600.789C538.896 599.933 539.125 599.246 539.583 598.728C540.061 598.211 540.688 597.952 541.465 597.952C542.221 597.952 542.848 598.221 543.346 598.758C543.844 599.276 544.093 599.953 544.093 600.789V628.176C544.093 629.271 543.844 630.336 543.346 631.372C542.868 632.407 542.201 633.283 541.345 634L539.075 635.822C538.339 636.399 537.562 636.837 536.746 637.136C535.929 637.435 535.093 637.584 534.237 637.584H524.202C523.366 637.584 522.679 637.345 522.141 636.867C521.604 636.389 521.335 635.772 521.335 635.015C521.335 634.259 521.594 633.642 522.111 633.164C522.649 632.686 523.346 632.447 524.202 632.447H534.177C534.556 632.447 534.864 632.407 535.103 632.327C535.342 632.248 535.581 632.108 535.82 631.909L538.06 630.058C538.299 629.859 538.488 629.59 538.627 629.251C538.787 628.933 538.876 628.574 538.896 628.176V623.398L536.985 625.07C536.348 625.628 535.591 626.056 534.715 626.354C533.859 626.673 532.983 626.832 532.087 626.832H528.115C527.219 626.832 526.362 626.683 525.546 626.384C524.75 626.105 523.973 625.667 523.216 625.07L521.454 623.726C520.678 623.109 520.021 622.263 519.483 621.188C518.966 620.112 518.707 619.077 518.707 618.081V606.882C518.707 605.807 518.956 604.731 519.453 603.656C519.971 602.581 520.638 601.725 521.454 601.088L523.216 599.744C523.973 599.146 524.75 598.699 525.546 598.4C526.362 598.101 527.219 597.952 528.115 597.952H532.087C532.983 597.952 533.859 598.111 534.715 598.43C535.591 598.748 536.348 599.186 536.985 599.744L538.896 601.386V600.789ZM538.956 615.692V609.152C538.956 608.813 538.876 608.475 538.717 608.136C538.577 607.798 538.408 607.549 538.209 607.389L533.879 603.835C533.58 603.597 533.271 603.417 532.953 603.298C532.654 603.158 532.365 603.089 532.087 603.089H528.115C527.796 603.089 527.497 603.149 527.219 603.268C526.94 603.368 526.651 603.557 526.352 603.835L524.65 605.179C524.431 605.359 524.252 605.617 524.112 605.956C523.973 606.274 523.903 606.603 523.903 606.941V617.902C523.903 618.221 523.973 618.549 524.112 618.888C524.252 619.206 524.431 619.445 524.65 619.605L526.323 620.949L526.412 621.008C526.99 621.466 527.557 621.695 528.115 621.695H532.087C532.425 621.695 532.734 621.635 533.012 621.516C533.291 621.397 533.58 621.207 533.879 620.949L538.209 617.484C538.408 617.305 538.577 617.046 538.717 616.708C538.876 616.369 538.956 616.031 538.956 615.692Z" fill="#9F34E1"/>
<path d="M561.952 597.952H568.941C569.797 597.952 570.484 598.191 571.002 598.669C571.539 599.146 571.808 599.764 571.808 600.52V621.695H576.527C577.363 621.695 578.04 621.934 578.558 622.412C579.076 622.87 579.334 623.487 579.334 624.264C579.334 625.02 579.066 625.638 578.528 626.115C578.01 626.593 577.343 626.832 576.527 626.832H561.952C561.096 626.832 560.399 626.593 559.862 626.115C559.344 625.638 559.085 625.02 559.085 624.264C559.085 623.507 559.354 622.89 559.892 622.412C560.429 621.934 561.116 621.695 561.952 621.695H566.612V603.089H561.952C561.076 603.089 560.38 602.86 559.862 602.402C559.344 601.924 559.085 601.297 559.085 600.52C559.085 599.784 559.354 599.176 559.892 598.699C560.429 598.201 561.116 597.952 561.952 597.952ZM566.97 585.05H569.479C570.056 585.05 570.584 585.309 571.062 585.826C571.559 586.344 571.808 586.941 571.808 587.618V589.769C571.808 590.505 571.539 591.123 571.002 591.62C570.464 592.098 569.777 592.337 568.941 592.337H566.97C566.094 592.337 565.397 592.108 564.879 591.65C564.362 591.172 564.103 590.545 564.103 589.769V587.618C564.103 586.862 564.362 586.244 564.879 585.767C565.417 585.289 566.114 585.05 566.97 585.05Z" fill="#9F34E1"/>
<path d="M604.243 603.029C603.984 603.029 603.715 603.089 603.436 603.208C603.177 603.308 602.909 603.457 602.63 603.656L600.45 605.478C600.171 605.697 599.942 605.986 599.763 606.344C599.603 606.683 599.524 607.031 599.524 607.389V610.854H614.576V607.389C614.576 607.031 614.486 606.683 614.307 606.344C614.148 605.986 613.939 605.707 613.68 605.508L611.44 603.656C611.181 603.457 610.913 603.308 610.634 603.208C610.375 603.089 610.116 603.029 609.857 603.029H604.243ZM604.183 597.952H609.857C610.713 597.952 611.56 598.111 612.396 598.43C613.252 598.728 614.039 599.166 614.755 599.744L616.965 601.506C617.802 602.203 618.469 603.079 618.966 604.134C619.464 605.189 619.713 606.274 619.713 607.389V613.512C619.713 614.249 619.444 614.866 618.907 615.364C618.369 615.842 617.682 616.08 616.846 616.08H599.524V617.424C599.524 617.783 599.603 618.131 599.763 618.47C599.942 618.808 600.171 619.087 600.45 619.306L602.63 621.158C602.869 621.337 603.108 621.476 603.347 621.576C603.605 621.655 603.904 621.695 604.243 621.695H616.846C617.702 621.695 618.389 621.934 618.907 622.412C619.444 622.89 619.713 623.507 619.713 624.264C619.713 625.02 619.444 625.638 618.907 626.115C618.369 626.593 617.682 626.832 616.846 626.832H604.183C603.327 626.832 602.49 626.683 601.674 626.384C600.858 626.086 600.081 625.647 599.345 625.07L597.134 623.218C596.278 622.522 595.601 621.655 595.104 620.62C594.626 619.585 594.387 618.519 594.387 617.424V607.389C594.387 606.274 594.626 605.189 595.104 604.134C595.601 603.079 596.278 602.203 597.134 601.506L599.345 599.744C600.081 599.146 600.858 598.699 601.674 598.4C602.49 598.101 603.327 597.952 604.183 597.952Z" fill="#9F34E1"/>
<path d="M639.365 597.952H650.236C651.908 597.952 653.432 598.47 654.805 599.505C656.199 600.54 656.896 601.595 656.896 602.671C656.896 603.387 656.637 603.995 656.12 604.492C655.622 604.99 655.024 605.239 654.328 605.239C653.69 605.239 653.004 604.881 652.267 604.164C651.55 603.447 650.853 603.089 650.176 603.089H639.365C638.927 603.089 638.568 603.238 638.29 603.537C638.011 603.816 637.871 604.204 637.871 604.702C637.871 604.921 637.961 605.15 638.14 605.388C638.319 605.627 638.538 605.807 638.797 605.926L652.685 611.839C654.158 612.497 655.323 613.472 656.179 614.766C657.035 616.041 657.463 617.474 657.463 619.067C657.463 621.197 656.697 623.019 655.164 624.532C653.631 626.066 651.809 626.832 649.698 626.832H639.604C637.812 626.832 636.129 626.305 634.556 625.249C632.983 624.214 632.197 623.169 632.197 622.113C632.197 621.436 632.436 620.839 632.914 620.321C633.412 619.804 634.009 619.545 634.706 619.545C635.263 619.545 636.02 619.903 636.975 620.62C637.931 621.337 638.807 621.695 639.604 621.695H649.698C650.395 621.695 651.003 621.436 651.52 620.919C652.058 620.401 652.327 619.784 652.327 619.067C652.327 618.529 652.177 618.042 651.879 617.604C651.58 617.146 651.172 616.817 650.654 616.618L636.856 610.615C635.582 610.077 634.576 609.261 633.84 608.166C633.103 607.071 632.735 605.876 632.735 604.582C632.735 602.75 633.382 601.187 634.676 599.893C635.97 598.599 637.533 597.952 639.365 597.952Z" fill="#9F34E1"/>
<path d="M707.106 608.263V626.26H702.475V608.213C702.475 605.176 701.858 603.015 700.623 601.73C699.405 600.445 697.261 599.803 694.19 599.803H684.804V595.547H694.24C697.311 595.547 699.789 595.981 701.674 596.849C703.56 597.7 704.937 599.06 705.804 600.929C706.672 602.781 707.106 605.226 707.106 608.263Z" fill="#65C5D1"/>
<path d="M720.172 595.547V611.692H715.566V595.547H720.172Z" fill="#65C5D1"/>
<path d="M751.911 623.156C750.759 623.924 749.324 624.549 747.605 625.033C745.903 625.517 743.767 625.876 741.197 626.11C738.628 626.343 735.449 626.477 731.661 626.51L725.804 595.547H730.585L733.663 611.342L735.491 610.991C736.492 610.758 737.318 610.457 737.969 610.09C738.619 609.706 739.137 609.172 739.52 608.488C739.837 607.954 740.079 607.295 740.246 606.511C740.413 605.726 740.538 604.792 740.622 603.707L741.248 595.547H746.003L745.227 603.757C745.111 605.142 744.969 606.344 744.802 607.362C744.635 608.363 744.435 609.172 744.201 609.79C743.784 611.041 743.158 612.009 742.324 612.693C741.489 613.361 740.104 613.953 738.169 614.47L734.414 615.347L735.641 621.804H736.241C739.596 621.804 742.282 621.612 744.301 621.229C746.32 620.828 747.914 620.211 749.082 619.376C749.866 618.809 750.526 618.108 751.06 617.274C751.593 616.44 752.044 615.338 752.411 613.97C752.778 612.601 753.087 610.841 753.337 608.688L754.914 595.547H759.745L758.143 608.513C757.809 611.417 757.376 613.811 756.842 615.697C756.308 617.566 755.64 619.084 754.839 620.252C754.055 621.404 753.079 622.372 751.911 623.156Z" fill="#65C5D1"/>
<path d="M762.999 622.205C767.621 622.205 771.242 621.779 773.862 620.928L764.576 595.547H769.657L777.867 618.976C779.436 617.858 780.696 616.364 781.647 614.495C782.615 612.61 783.315 610.14 783.749 607.086C784.2 604.033 784.425 600.186 784.425 595.547H789.256C789.256 603.257 788.438 609.297 786.803 613.669C785.702 616.573 784.158 618.976 782.172 620.878C780.187 622.764 777.625 624.216 774.488 625.234C771.368 626.235 767.538 626.852 762.999 627.086V622.205Z" fill="#65C5D1"/>
</g>
<g filter="url(#filter3_i_1_62749)">
<path fill-rule="evenodd" clip-rule="evenodd" d="M198.026 426.888C196.678 429.221 191.826 442.418 191.114 445.474C192.422 444.598 193.354 443.387 194.32 442.132L194.32 442.132C195.593 440.478 196.925 438.747 199.254 437.604C201.388 436.556 204.247 435.864 206.936 435.213L206.936 435.213L206.936 435.213L206.937 435.213L206.937 435.213L206.937 435.213L206.937 435.213C208.401 434.858 209.814 434.516 211.032 434.135C211.323 434.045 211.698 433.923 212.136 433.782L212.138 433.781C215.131 432.814 221.048 430.901 222.856 431.311C223.621 431.484 227.659 434.643 230.063 436.525C230.765 437.074 231.329 437.515 231.63 437.74C233.41 439.069 234.626 440.114 235.541 440.901C236.773 441.959 237.46 442.549 238.243 442.735C239.231 442.969 240.372 442.559 242.954 441.63C245.038 440.881 248.06 439.794 252.699 438.436L253.033 438.338C258.663 436.688 260.494 436.151 263.161 440.515C264.724 443.075 267.456 447.992 268.113 450.811L255.049 462.905C252.817 464.349 238.949 468.108 236.094 468.345C237.563 470.352 244.443 474.585 246.767 475.207C246.081 476.504 245.374 477.652 244.727 478.703C243.41 480.844 242.34 482.583 242.192 484.355L246.709 485.812C245.889 487.193 245.143 488.603 244.472 490.043C244.168 489.947 243.884 489.861 243.621 489.788C242.507 489.478 241.401 489.167 240.3 488.857L240.3 488.857C235.596 487.534 230.988 486.238 226.183 485.118C227.28 486.757 230.545 489.634 233.909 492.599L233.909 492.599C236.662 495.025 239.482 497.51 241.235 499.423C241.022 500.335 240.835 501.258 240.673 502.19C239.281 502.426 237.835 502.752 236.376 503.08L236.375 503.08C235.372 503.306 234.363 503.533 233.362 503.733L206.171 509.324C198.113 510.921 197.628 511.202 194.889 512.784C193.827 513.398 192.424 514.209 190.107 515.369C189.087 515.879 188.19 516.366 187.365 516.814L187.365 516.814C183.182 519.085 180.843 520.355 173.58 518.663C174.145 520.782 174.5 521.027 175.66 521.83L175.66 521.83C175.927 522.014 176.237 522.229 176.602 522.503C177.361 523.072 177.871 523.484 178.444 523.946L178.444 523.946C178.883 524.3 179.359 524.684 180.011 525.191C181.187 526.105 182.004 526.858 182.741 527.538C184.018 528.715 185.056 529.672 187.302 530.86C188.217 526.935 189.957 521.591 193.791 520.577L201.787 519.425C202.284 521.558 203.653 523.919 204.987 526.218C205.921 527.829 206.838 529.41 207.424 530.86C210.402 538.227 210.567 545.75 208.279 553.763L204.007 565.93C205.983 564.606 212.668 559.11 214.186 556.947C214.551 556.427 214.909 555.937 215.258 555.459L215.259 555.457L215.261 555.454L215.262 555.453C216.666 553.533 217.933 551.798 218.958 549.064V539.239C220.436 540.228 222.537 542.858 224.266 545.022L224.267 545.022C224.997 545.936 225.661 546.766 226.183 547.355C229.382 550.96 230.614 552.842 231.714 554.524C232.816 556.208 233.787 557.692 236.472 560.505C241.858 566.151 254.14 569.596 258.688 570.055L274.182 572.059C281.597 572.141 283.901 572.381 286.024 572.603C288.16 572.826 290.113 573.029 296.906 573.034C296.905 573.034 296.904 573.034 296.904 573.034C296.904 573.035 296.952 573.037 297.045 573.041C298.424 573.101 309.693 573.586 319.348 577.258L315.136 573.034C314.266 572.761 313.083 572.146 311.913 571.539L311.913 571.539C310.694 570.906 309.49 570.28 308.668 570.055C307.451 569.722 305.16 568.854 302.865 567.984L302.864 567.984L302.864 567.983C300.628 567.136 298.387 566.287 297.133 565.93L289.604 563.198C292.187 563.476 294.836 563.615 297.552 563.615C308.492 563.615 318.329 561.359 327.06 556.847C335.792 552.335 342.667 546.119 347.686 538.198C352.704 530.278 355.213 521.373 355.213 511.485C355.213 501.597 352.704 492.692 347.686 484.772C342.667 476.851 335.792 470.635 327.06 466.123C326.034 465.592 324.992 465.093 323.936 464.625C330.932 460.819 341.524 454.873 342.825 453.097C340.681 451.963 338.586 451.037 336.447 450.093C334.638 449.294 332.798 448.481 330.871 447.517L294.796 430.989L310.378 426.888H338.571C310.378 414.98 285.176 412.692 280.311 412.692C281.394 408.635 285.492 407.929 295.139 406.266C297.127 405.923 299.351 405.54 301.832 405.078L268.113 401.257C258.181 401.2 241.636 403.77 236.517 407.78C236.331 407.926 236.049 408.153 235.694 408.439L235.692 408.441L235.691 408.442L235.687 408.444L235.687 408.445C233.038 410.58 226.383 415.943 225.42 414.98C224.522 414.081 225.282 413.663 225.711 413.426C225.823 413.365 225.913 413.315 225.944 413.273C226.148 413 226.371 412.693 226.616 412.356C229.028 409.033 233.508 402.86 242.192 398.694C227.806 402.041 225.057 403.386 219.415 406.147L219.053 406.325C218.318 406.684 217.529 407.051 216.724 407.424L216.724 407.424C214.868 408.286 212.933 409.184 211.409 410.116C210.326 411.437 209.037 412.945 207.681 414.531L207.681 414.531C204.044 418.783 199.926 423.598 198.026 426.888ZM296.906 573.034C296.918 573.033 296.975 573.033 297.082 573.034L297.133 573.034L296.906 573.034ZM183.488 463.627C181.628 466.404 178.701 468.452 175.744 470.522C172.724 472.634 169.674 474.769 167.695 477.724C169.886 487.127 171.897 488.255 177.783 491.555C178.729 492.086 179.776 492.673 180.939 493.359C184.783 495.627 186.089 496.784 187.774 499.083C186.447 498.774 184.601 498.057 182.47 497.228L182.47 497.228C178.471 495.674 173.468 493.73 169.003 493.359C168.946 493.603 168.896 493.824 168.851 494.023L168.85 494.025L168.85 494.025L168.85 494.026C168.617 495.049 168.509 495.524 168.251 495.896C168.027 496.218 167.691 496.462 167.064 496.917C166.957 496.995 166.841 497.079 166.716 497.17C166.716 494.702 166.937 493.139 167.123 491.826C167.462 489.435 167.683 487.87 166.239 483.162L162.996 471.743C164.019 471.252 165.002 470.716 165.994 470.176C168.003 469.082 170.048 467.967 172.538 467.162C173.712 466.782 174.928 466.3 176.153 465.814C178.65 464.824 181.187 463.818 183.488 463.627ZM205.43 452.519L216.046 448.431C216.046 448.162 213.547 447.392 210.129 447.392C205.003 447.392 203.105 448.166 200.304 451.665L195.462 459.104C197.194 457.944 203.557 453.731 205.43 452.519ZM261.253 448.523C259.441 448.101 258.863 447.701 258.287 447.302C257.778 446.949 257.272 446.598 255.916 446.236L248.454 453.262C247.97 452.563 247.483 451.974 247.017 451.411C245.957 450.129 245.01 448.984 244.48 446.999C246.205 446.597 247.878 445.987 249.564 445.372C252.536 444.287 255.551 443.187 258.966 443.187C259.387 444.998 259.788 445.577 260.187 446.152C260.539 446.661 260.89 447.168 261.253 448.523ZM384.044 560.375C391.822 562.535 399.877 563.615 408.207 563.615C417.842 563.615 426.023 562.223 432.747 559.439C439.471 556.655 444.515 552.887 447.877 548.135C451.24 543.382 452.921 538.126 452.921 532.366C452.921 525.646 451.089 520.318 447.426 516.381C443.762 512.445 439.371 509.565 434.252 507.741C429.134 505.917 422.56 504.092 414.53 502.269C406.802 500.636 401.056 498.98 397.292 497.3C393.528 495.62 391.647 493.052 391.647 489.596C391.647 486.14 393.278 483.355 396.54 481.244C399.801 479.132 404.845 478.075 411.67 478.075C421.405 478.075 431.141 480.716 440.877 485.996L448.404 468.283C443.587 465.403 437.966 463.195 431.543 461.659C425.119 460.123 418.545 459.355 411.82 459.355C402.185 459.355 394.031 460.746 387.356 463.531C380.681 466.315 375.688 470.083 372.376 474.835C369.064 479.587 367.408 484.892 367.408 490.748C367.408 497.468 369.239 502.845 372.903 506.877C376.567 510.909 380.958 513.837 386.076 515.661C391.195 517.485 397.769 519.31 405.798 521.133C411.017 522.285 415.157 523.342 418.219 524.302C421.28 525.261 423.789 526.534 425.746 528.118C427.703 529.702 428.682 531.694 428.682 534.094C428.682 537.358 427.026 539.974 423.714 541.942C420.402 543.91 415.283 544.894 408.358 544.894C402.135 544.894 395.912 543.935 389.689 542.014C383.466 540.094 378.097 537.55 373.581 534.382L365.3 551.951C370.018 555.407 376.266 558.215 384.044 560.375ZM566.285 561.887V461.083H541.896V500.828H494.021V461.083H469.632V561.887H494.021V520.557H541.896V561.887H566.285ZM672.875 561.887V543.166H615.515V519.837H664.444V501.692H615.515V479.803H670.918V461.083H591.277V561.887H672.875ZM739.117 533.806L759.442 561.887H785.637L762.001 529.486C768.926 526.606 774.271 522.453 778.035 517.029C781.798 511.605 783.68 505.149 783.68 497.66C783.68 490.172 781.823 483.692 778.11 478.219C774.396 472.747 769.102 468.523 762.227 465.547C755.352 462.571 747.247 461.083 737.913 461.083H692.296V561.887H716.685V533.806H739.117ZM753.269 484.628C757.083 487.652 758.99 491.996 758.99 497.66C758.99 503.228 757.083 507.549 753.269 510.621C749.455 513.693 743.885 515.229 736.558 515.229H716.685V480.091H736.558C743.885 480.091 749.455 481.604 753.269 484.628ZM299.176 548.25C321.47 548.25 339.543 532.005 339.543 511.965C339.543 491.926 321.47 475.681 299.176 475.681C276.882 475.681 258.81 491.926 258.81 511.965C258.81 532.005 276.882 548.25 299.176 548.25Z" fill="white"/>
</g>
<g style="mix-blend-mode:overlay">
<rect width="511.802" height="512" fill="#9D9D9D"/>
<rect x="511.934" width="511.802" height="512" fill="#747474"/>
<rect y="511.998" width="511.802" height="512" fill="#747474"/>
<rect x="511.934" y="511.998" width="511.802" height="512" fill="#4D4D4D"/>
</g>
</g>
<defs>
<filter id="filter0_i_1_62749" x="274.067" y="648.492" width="478.567" height="158.816" filterUnits="userSpaceOnUse" color-interpolation-filters="sRGB">
<feFlood flood-opacity="0" result="BackgroundImageFix"/>
<feBlend mode="normal" in="SourceGraphic" in2="BackgroundImageFix" result="shape"/>
<feColorMatrix in="SourceAlpha" type="matrix" values="0 0 0 0 0 0 0 0 0 0 0 0 0 0 0 0 0 0 127 0" result="hardAlpha"/>
<feOffset dx="1.94931" dy="1.94931"/>
<feGaussianBlur stdDeviation="3.89862"/>
<feComposite in2="hardAlpha" operator="arithmetic" k2="-1" k3="1"/>
<feColorMatrix type="matrix" values="0 0 0 0 0 0 0 0 0 0 0 0 0 0 0 0 0 0 0.55 0"/>
<feBlend mode="normal" in2="shape" result="effect1_innerShadow_1_62749"/>
</filter>
<filter id="filter1_i_1_62749" x="274.519" y="267" width="478.57" height="177.184" filterUnits="userSpaceOnUse" color-interpolation-filters="sRGB">
<feFlood flood-opacity="0" result="BackgroundImageFix"/>
<feBlend mode="normal" in="SourceGraphic" in2="BackgroundImageFix" result="shape"/>
<feColorMatrix in="SourceAlpha" type="matrix" values="0 0 0 0 0 0 0 0 0 0 0 0 0 0 0 0 0 0 127 0" result="hardAlpha"/>
<feOffset dx="1.94931" dy="1.94931"/>
<feGaussianBlur stdDeviation="3.89862"/>
<feComposite in2="hardAlpha" operator="arithmetic" k2="-1" k3="1"/>
<feColorMatrix type="matrix" values="0 0 0 0 0 0 0 0 0 0 0 0 0 0 0 0 0 0 0.55 0"/>
<feBlend mode="normal" in2="shape" result="effect1_innerShadow_1_62749"/>
</filter>
<filter id="filter2_i_1_62749" x="216.285" y="585.05" width="573.945" height="53.5088" filterUnits="userSpaceOnUse" color-interpolation-filters="sRGB">
<feFlood flood-opacity="0" result="BackgroundImageFix"/>
<feBlend mode="normal" in="SourceGraphic" in2="BackgroundImageFix" result="shape"/>
<feColorMatrix in="SourceAlpha" type="matrix" values="0 0 0 0 0 0 0 0 0 0 0 0 0 0 0 0 0 0 127 0" result="hardAlpha"/>
<feOffset dx="0.974656" dy="0.974656"/>
<feGaussianBlur stdDeviation="0.974656"/>
<feComposite in2="hardAlpha" operator="arithmetic" k2="-1" k3="1"/>
<feColorMatrix type="matrix" values="0 0 0 0 0 0 0 0 0 0 0 0 0 0 0 0 0 0 0.55 0"/>
<feBlend mode="normal" in2="shape" result="effect1_innerShadow_1_62749"/>
</filter>
<filter id="filter3_i_1_62749" x="162.996" y="398.694" width="624.59" height="180.514" filterUnits="userSpaceOnUse" color-interpolation-filters="sRGB">
<feFlood flood-opacity="0" result="BackgroundImageFix"/>
<feBlend mode="normal" in="SourceGraphic" in2="BackgroundImageFix" result="shape"/>
<feColorMatrix in="SourceAlpha" type="matrix" values="0 0 0 0 0 0 0 0 0 0 0 0 0 0 0 0 0 0 127 0" result="hardAlpha"/>
<feOffset dx="1.94931" dy="1.94931"/>
<feGaussianBlur stdDeviation="3.89862"/>
<feComposite in2="hardAlpha" operator="arithmetic" k2="-1" k3="1"/>
<feColorMatrix type="matrix" values="0 0 0 0 0 0 0 0 0 0 0 0 0 0 0 0 0 0 0.55 0"/>
<feBlend mode="normal" in2="shape" result="effect1_innerShadow_1_62749"/>
</filter>
<clipPath id="clip0_1_62749">
<rect width="1024" height="1024" rx="512" fill="white"/>
</clipPath>
</defs>
</svg>
